<?xml version="1.0" encoding="UTF-8" standalone="no"?>
<!DOCTYPE svg PUBLIC "-//W3C//DTD SVG 1.1//EN" "http://www.w3.org/Graphics/SVG/1.1/DTD/svg11.dtd">
<svg width="100%" height="100%" viewBox="0 0 1080 1080" version="1.1" xmlns="http://www.w3.org/2000/svg" xmlns:xlink="http://www.w3.org/1999/xlink" xml:space="preserve" xmlns:serif="http://www.serif.com/" style="fill-rule:evenodd;clip-rule:evenodd;stroke-linecap:round;stroke-linejoin:round;stroke-miterlimit:10;">
    <g id="Layer-4" serif:id="Layer 4">
        <g transform="matrix(1,0,0,1,365.631,233.69)">
            <path d="M0,43.181C-2.851,47.392 -6.562,51.011 -10.807,53.922C-15.035,56.853 -19.825,59.11 -24.942,60.357C-30.073,61.58 -35.427,61.681 -40.694,61.036C-43.337,60.703 -45.951,60.027 -48.484,59.101C-51.016,58.175 -53.489,57.006 -55.773,55.508C-65.02,49.666 -71.328,39.063 -71.443,27.704C-71.495,22.061 -69.766,16.155 -66.021,11.508C-64.121,9.174 -61.946,7.325 -59.456,5.799C-56.978,4.294 -54.254,3.173 -51.404,2.547C-48.544,1.979 -45.58,1.803 -42.623,2.294C-41.145,2.509 -39.671,2.918 -38.231,3.487C-36.791,4.046 -35.384,4.833 -34.092,5.86C-32.805,6.884 -31.621,8.165 -30.754,9.709C-29.892,11.254 -29.384,13.021 -29.268,14.756C-29.186,15.633 -29.26,16.475 -29.334,17.319C-29.481,18.125 -29.602,18.962 -29.864,19.703C-30.295,21.259 -31.019,22.593 -31.75,23.885C-33.274,26.325 -35.163,28.601 -37.52,30.43C-39.863,32.257 -42.653,33.588 -45.555,34.206C-48.456,34.835 -51.427,34.839 -54.236,34.323C-57.049,33.804 -59.711,32.82 -62.162,31.511C-67.055,28.89 -71.185,24.969 -73.886,20.17C-75.231,17.778 -76.263,15.193 -76.804,12.495C-77.337,9.799 -77.438,7.026 -77.067,4.335C-76.724,1.633 -75.798,-0.93 -74.667,-3.315L-73.761,-5.076L-72.733,-6.739C-72.408,-7.3 -71.996,-7.813 -71.627,-8.347C-71.263,-8.884 -70.856,-9.393 -70.438,-9.892C-68.796,-11.904 -66.918,-13.725 -64.818,-15.23C-62.696,-16.699 -60.383,-17.889 -57.878,-18.5L-57.78,-18.112C-60.12,-17.37 -62.309,-16.055 -64.244,-14.507C-66.185,-12.948 -67.902,-11.115 -69.376,-9.107C-72.297,-5.091 -74.508,-0.424 -74.971,4.542C-75.199,7.013 -75.034,9.516 -74.465,11.933C-73.892,14.351 -72.877,16.651 -71.587,18.767C-69,23.007 -65.185,26.489 -60.745,28.705C-56.336,30.929 -51.184,31.933 -46.353,30.802C-43.948,30.252 -41.689,29.127 -39.772,27.585C-37.847,26.044 -36.276,24.099 -34.996,21.987C-34.408,20.908 -33.839,19.806 -33.523,18.625C-33.171,17.46 -32.988,16.238 -33.099,15.037C-33.188,13.838 -33.532,12.663 -34.12,11.614C-34.715,10.567 -35.551,9.666 -36.501,8.918C-38.412,7.41 -40.804,6.56 -43.223,6.193C-45.652,5.799 -48.155,5.964 -50.564,6.455C-55.373,7.506 -59.864,10.16 -62.999,13.969C-66.131,17.795 -67.645,22.787 -67.673,27.727C-67.715,32.688 -66.358,37.636 -63.962,41.982C-61.569,46.34 -58.11,50.094 -54.004,52.898C-51.959,54.318 -49.722,55.447 -47.41,56.362C-45.096,57.279 -42.686,57.964 -40.226,58.374C-35.306,59.156 -30.251,59.243 -25.349,58.28C-20.447,57.344 -15.751,55.426 -11.509,52.797C-9.372,51.503 -7.376,49.983 -5.492,48.345C-3.611,46.706 -1.845,44.907 -0.324,42.947L0,43.181Z" style="fill:rgb(182,221,87);fill-rule:nonzero;"/>
        </g>
        <g transform="matrix(-0.251313,-0.967906,-0.967906,0.251313,314.789,262.01)">
            <path d="M-37.781,-44.457C-22.928,-5.035 -38.328,29.748 -38.683,30.339C-35.194,20.339 -34.921,10.149 -37.781,-0.866C-40.456,-11.168 -46.498,-20.361 -53.626,-27.085C-47.98,-32.509 -42.768,-38.258 -37.781,-44.457" style="fill:rgb(238,152,13);"/>
        </g>
        <g transform="matrix(1,0,0,1,358.671,307.077)">
            <path d="M0,-27.187C-23.043,-25.392 -46.109,-15.335 -63.527,0C-61.518,-1.668 -32.109,-24.019 8.643,-19.671C5.85,-22.266 2.973,-24.77 0,-27.187" style="fill:rgb(246,194,41);fill-rule:nonzero;"/>
        </g>
        <g transform="matrix(1,0,0,1,352.117,307.076)">
            <path d="M0,-32.252C-21.465,-26.949 -41.678,-15.005 -56.973,0C-39.613,-15.293 -16.428,-25.354 6.554,-27.186C4.419,-28.922 2.225,-30.612 0,-32.252" style="fill:rgb(243,182,35);"/>
        </g>
        <g transform="matrix(1,0,0,1,311.522,258.105)">
            <path d="M0,3.587C17.325,1.777 34.649,2.781 51.033,7.573C47.49,4.103 44.179,0.37 41.107,-3.534C26.713,-3.986 12.865,-1.463 0,3.587" style="fill:rgb(120,203,25);"/>
        </g>
        <g transform="matrix(1,0,0,1,369.482,261.536)">
            <path d="M0,27.362C2.771,23.958 5.846,20.397 9.137,17.298C9.135,17.383 9.137,17.343 9.137,17.298C-3.012,9.813 -16.764,4.286 -31.653,1.619C-40.063,0.112 -57.562,0 -57.959,0.156C-56.311,0.372 -54.528,0.693 -52.874,0.989C-32.404,4.656 -14.191,14.505 0,27.362" style="fill:rgb(76,174,9);"/>
        </g>
        <g transform="matrix(1,0,0,1,362.555,273.1)">
            <path d="M0,-7.422C-0.032,-7.431 0.033,-7.413 0,-7.422C-16.244,-12.174 -33.855,-13.156 -51.033,-11.408C-48.215,-11.504 -32.438,-11.327 -24.727,-9.945C-9.837,-7.278 3.915,-1.751 16.063,5.734C16.063,5.734 16.064,5.734 16.063,5.734C10.33,1.838 4.938,-2.559 0,-7.422" style="fill:rgb(182,221,87);fill-rule:nonzero;"/>
        </g>
        <g transform="matrix(1,0,0,1,377.285,189.08)">
            <path d="M0,88.439C0.083,88.349 10.911,91.53 11,91.439C16.49,85.466 27.231,98 34,93.439C33.938,93.42 28.065,75.457 28,75.439C-7.837,66.241 -28,23.439 -35,-9.561C-54,17.439 -45,55.439 0,88.439" style="fill:rgb(32,155,199);"/>
        </g>
        <g transform="matrix(0.760298,-0.649575,-0.649575,-0.760298,451.254,237.88)">
            <path d="M-44.939,-20.318C-45.862,-19.226 -40.066,15.942 -40.769,16.892C-64.574,49.068 -67.785,89.955 -44.939,115.155C-78.747,94.059 -81.493,47.74 -64.626,13.6C-61.065,4.833 -48.074,-19.66 -44.939,-20.318" style="fill:rgb(79,202,227);fill-rule:nonzero;"/>
        </g>
        <g transform="matrix(1,0,0,1,422.285,179.519)">
            <path d="M0,95C12.416,88.267 11.018,86.138 26,85C41.308,83.837 52.096,67.546 65.622,72.548C54.008,64.604 40.6,59.171 26.222,56.974C16.568,55.633 6.625,55.295 -3.49,56.064C-3.818,56.089 -4.148,56.109 -4.479,56.125C-45.11,58.926 -76,27 -80,0C-85,31 -57.892,63.14 -23,79C-12,84 -1.409,94.769 0,95" style="fill:rgb(58,182,215);"/>
        </g>
        <g transform="matrix(1,0,0,1,344.619,304.281)">
            <rect x="0" y="0" width="0.001" height="0.001" style="fill:rgb(182,221,87);"/>
        </g>
        <g transform="matrix(1,0,0,1,381.452,234.82)">
            <path d="M0,-56.854C7.56,-60.208 16.61,-60.796 24.858,-57.946C26.901,-57.207 28.889,-56.279 30.77,-55.149C32.642,-54.007 34.419,-52.692 36.067,-51.208C37.711,-49.719 39.168,-48.015 40.46,-46.181C41.753,-44.347 42.857,-42.354 43.688,-40.221C44.526,-38.093 45.116,-35.837 45.376,-33.506C45.623,-31.178 45.526,-28.775 45.019,-26.439C44.503,-24.075 43.677,-21.916 42.583,-19.834C41.486,-17.763 40.106,-15.83 38.482,-14.114C35.219,-10.701 30.985,-8.154 26.124,-7.139C23.687,-6.682 21.057,-6.57 18.394,-7.313C17.064,-7.649 15.757,-8.284 14.546,-9.069C13.348,-9.899 12.286,-10.949 11.452,-12.141C9.814,-14.562 9.193,-17.314 9.078,-19.806C9.023,-21.06 9.075,-22.291 9.244,-23.452C9.324,-24.04 9.377,-24.627 9.486,-25.213L9.902,-26.97C11.082,-31.631 14.052,-36.099 18.12,-38.806C22.157,-41.578 26.887,-42.811 31.469,-42.97C36.071,-43.122 40.632,-42.181 44.746,-40.27C45.794,-39.839 46.765,-39.233 47.759,-38.697C48.7,-38.058 49.678,-37.484 50.545,-36.742C52.353,-35.369 53.938,-33.697 55.283,-31.874C56.662,-30.063 57.666,-28.008 58.513,-25.933C59.227,-23.808 59.831,-21.642 59.965,-19.437C60.304,-15.026 59.712,-10.769 58.423,-6.693C57.749,-4.672 56.888,-2.717 55.787,-0.911C54.649,0.873 53.337,2.535 51.698,3.873C51.612,3.942 51.486,3.93 51.417,3.844C51.351,3.764 51.358,3.648 51.43,3.577L51.435,3.571C54.298,0.715 56.098,-3.125 57.145,-7.029C58.138,-10.972 58.437,-15.12 57.879,-19.141C57.649,-21.164 57.019,-23.11 56.296,-25C55.445,-26.836 54.479,-28.636 53.177,-30.196C51.899,-31.764 50.454,-33.211 48.799,-34.386C48.01,-35.026 47.111,-35.507 46.26,-36.055C45.35,-36.503 44.475,-37.023 43.521,-37.376C39.789,-38.966 35.688,-39.672 31.646,-39.479C27.613,-39.262 23.577,-38.091 20.296,-35.74C18.629,-34.607 17.236,-33.111 16.108,-31.459C14.943,-29.819 14.186,-27.922 13.668,-25.986L13.329,-24.515C13.241,-24.02 13.204,-23.514 13.139,-23.015C12.997,-22.016 12.968,-21.006 13.018,-20.009C13.124,-18.021 13.63,-16.031 14.742,-14.411C15.308,-13.612 16,-12.911 16.8,-12.345C17.622,-11.819 18.502,-11.359 19.464,-11.115C21.366,-10.561 23.419,-10.613 25.383,-10.966C29.328,-11.745 32.962,-13.884 35.789,-16.752C38.618,-19.628 40.653,-23.297 41.602,-27.217C42.532,-31.157 42.087,-35.341 40.724,-39.144C37.934,-46.795 31.575,-52.919 24.056,-55.987C22.178,-56.777 20.21,-57.328 18.222,-57.76C16.224,-58.155 14.191,-58.358 12.154,-58.401C8.077,-58.441 4.006,-57.737 0.127,-56.474C0.022,-56.44 -0.09,-56.498 -0.125,-56.603C-0.157,-56.7 -0.108,-56.805 -0.017,-56.846L0,-56.854Z" style="fill:rgb(58,182,215);fill-rule:nonzero;"/>
        </g>
        <g transform="matrix(1,0,0,1,745.519,603.303)">
            <path d="M0,-58.478C-4.792,-44.249 -14.372,-47.911 -19.453,-49.649C-25.055,-51.579 -30.328,-54.052 -35.66,-51.516C-39.806,-49.539 -44.606,-46.849 -45.587,-35.359C-46.559,-23.88 -42.289,-20.419 -38.545,-17.766C-33.715,-14.349 -28.096,-15.911 -22.255,-16.864C-16.947,-17.72 -6.89,-19.701 -4.576,-4.866C-2.203,10.353 2.7,16.574 12.958,20.411C20.029,23.063 30.408,23.357 30.408,23.357L34.833,-28.497L39.263,-80.357C39.263,-80.357 28.981,-81.835 21.561,-80.418C10.807,-78.372 4.918,-73.085 0,-58.478" style="fill:rgb(253,227,191);fill-rule:nonzero;"/>
        </g>
        <g transform="matrix(1,0,0,1,797.015,575.803)">
            <path d="M0,8.739C2.038,26.417 16.415,40.372 34.174,41.912C54.878,43.718 73.184,28.339 74.988,7.632C75.208,5.086 75.174,2.516 74.886,-0.002C72.842,-17.678 58.471,-31.634 40.703,-33.179C20.003,-34.979 1.696,-19.605 -0.104,1.095C-0.325,3.652 -0.29,6.221 0,8.739M94.326,-2.248C94.764,1.573 94.816,5.471 94.482,9.332C91.741,40.782 63.927,64.143 32.479,61.412C5.496,59.061 -16.34,37.854 -19.44,10.985C-19.879,7.159 -19.935,3.261 -19.598,-0.599C-16.861,-32.049 10.951,-55.404 42.399,-52.673C69.383,-50.328 91.223,-29.115 94.326,-2.248" style="fill:rgb(247,214,161);fill-rule:nonzero;"/>
        </g>
        <g transform="matrix(1,0,0,1,781.104,640.712)">
            <path d="M0,-131.333C9.113,-130.544 15.819,-122.066 14.981,-112.395L6.623,-16.077C5.781,-6.41 -2.289,0.794 -11.403,0.005C-20.517,-0.784 -27.225,-9.272 -26.388,-18.938L-18.025,-115.262C-17.184,-124.929 -9.114,-132.127 0,-131.333" style="fill:rgb(247,214,161);fill-rule:nonzero;"/>
        </g>
        <g transform="matrix(1,0,0,1,562.658,494.295)">
            <path d="M0,-0.494C-0.273,-0.194 -0.443,-0.011 -0.443,-0.011C-0.433,-0.021 -0.455,0 -0.443,-0.011C-0.308,-0.162 -0.137,-0.343 0,-0.494" style="fill:rgb(218,127,10);"/>
        </g>
        <g transform="matrix(0.221149,0.97524,0.97524,-0.221149,666.231,430.965)">
            <path d="M38.748,-115.444C92.684,-66.951 162.006,-36.703 236.075,-31.327C172.933,16.828 103.97,57.721 38.748,72.511C16.592,77.535 -5.536,79.137 -27.087,77.68C-24.197,7.327 -0.676,-59.55 38.748,-115.444" style="fill:rgb(250,191,55);"/>
        </g>
        <g transform="matrix(1,0,0,1,562.215,347.86)">
            <path d="M0,146.424C45.625,96.328 106.431,57.722 173.77,39.513C169.665,25.686 164.308,12.279 157.822,0.002C157.812,0.001 157.804,0.001 157.794,0C157.802,0.016 157.811,0.031 157.818,0.047C155.794,1.052 153.782,2.079 151.779,3.121C88.312,34.895 35.321,85.148 0,146.424" style="fill:rgb(218,127,10);"/>
        </g>
        <g transform="matrix(-1,0,0,1,506.79,443.607)">
            <path d="M0.001,-11.167C-3.084,-11.167 -5.583,-8.667 -5.583,-5.583C-5.583,-2.499 -3.084,0 0.001,0C3.084,0 5.584,-2.499 5.584,-5.583C5.584,-8.667 3.084,-11.167 0.001,-11.167" style="fill:rgb(167,165,166);fill-rule:nonzero;"/>
        </g>
        <g opacity="0.5">
            <g transform="matrix(0.287348,0.957826,0.957826,-0.287348,357.898,668.092)">
                <path d="M-0.015,-0.02C0,-0.02 0.012,-0.02 0.027,-0.02" style="fill:rgb(195,48,31);fill-rule:nonzero;"/>
            </g>
            <g transform="matrix(0.287348,0.957826,0.957826,-0.287348,357.898,668.092)">
                <path d="M-0.015,-0.02C0,-0.02 0.012,-0.02 0.027,-0.02" style="fill:rgb(195,48,31);fill-rule:nonzero;"/>
            </g>
        </g>
        <g transform="matrix(1,0,0,1,629.455,915.583)">
            <path d="M0,-661.287C-32.621,-679.612 -69.083,-690.183 -109.117,-690.183C-234.032,-690.183 -335.294,-588.494 -335.294,-463.052C-335.294,-260.365 -109.117,28.896 -109.117,28.896C-109.117,28.896 -17.071,-88.831 49.582,-226.698C36.537,-292.29 4.239,-351.895 -40.964,-397.583C-40.988,-397.558 -41.014,-397.537 -41.038,-397.513C-58.874,-379.824 -83.425,-368.894 -110.531,-368.894C-165.032,-368.894 -209.215,-413.069 -209.215,-467.561C-209.215,-518.906 -169.985,-561.078 -119.861,-565.779C-86.685,-604.667 -45.884,-637.274 0,-661.287" style="fill:rgb(209,57,38);"/>
        </g>
        <g transform="matrix(1,0,0,1,506.789,452.173)">
            <path d="M0,-8.566C-3.083,-8.566 -5.583,-11.066 -5.583,-14.149C-5.583,-17.234 -3.083,-19.733 0,-19.733C3.084,-19.733 5.584,-17.234 5.584,-14.149C5.584,-11.066 3.084,-8.566 0,-8.566M11.841,-33.878C-4.503,-33.878 -17.752,-20.628 -17.752,-4.282C-17.752,12.063 -4.503,25.312 11.841,25.312C28.186,25.312 41.436,12.063 41.436,-4.282C41.436,-20.628 28.186,-33.878 11.841,-33.878" style="fill:rgb(26,26,26);fill-rule:nonzero;"/>
        </g>
        <g transform="matrix(1,0,0,1,365.758,286.724)">
            <rect x="0" y="0" width="0.001" height="0.001" style="fill:rgb(182,221,87);"/>
        </g>
        <g transform="matrix(1,0,0,1,188.303,241.387)">
            <path d="M0,0C-0.042,0.004 0.042,-0.004 0,0C0.051,-0.002 -0.055,0.002 0,0C-0.018,-0.002 0.018,0.002 0,0" style="fill:rgb(182,221,87);fill-rule:nonzero;"/>
        </g>
        <g transform="matrix(1,0,0,1,687.888,537.12)">
            <path d="M0,131.003C-18.083,71.591 -52.401,19.272 -97.785,-20.762C-98.341,-20.184 -98.903,-19.612 -99.473,-19.048L-99.471,-19.05C-99.446,-19.074 -99.421,-19.096 -99.396,-19.121C-54.193,26.567 -21.896,86.173 -8.851,151.765C-4.517,142.799 0.947,128.93 0,131.003" style="fill:rgb(202,51,34);"/>
        </g>
        <g transform="matrix(1,0,0,1,687.888,537.12)">
            <path d="M0,131.003C-18.083,71.591 -52.401,19.272 -97.785,-20.762C-98.341,-20.184 -98.903,-19.612 -99.473,-19.048L-99.471,-19.05C-99.446,-19.074 -99.421,-19.096 -99.396,-19.121C-54.193,26.567 -21.896,86.173 -8.851,151.765C-4.517,142.799 0.947,128.93 0,131.003" style="fill:rgb(202,51,34);"/>
        </g>
        <g transform="matrix(1,0,0,1,562.215,402.201)">
            <path d="M0,92.083C-11.333,103.063 -26.683,109.816 -43.584,109.816C-78.464,109.816 -106.74,81.106 -106.74,45.69C-106.74,36.067 -104.638,26.948 -100.898,18.757C-87.529,-6.686 -71.273,-30.534 -52.615,-52.404C-102.742,-47.706 -141.974,-5.527 -141.974,45.821C-141.974,100.313 -97.792,144.487 -43.291,144.487C-16.181,144.487 8.374,133.554 26.21,115.861C26.773,115.302 27.331,114.736 27.881,114.164C27.883,114.161 27.883,114.157 27.884,114.154C18.998,106.316 9.696,98.939 0,92.083" style="fill:rgb(169,47,30);"/>
        </g>
        <g transform="matrix(1,0,0,1,518.63,288.828)">
            <path d="M0,188.658C-16.344,188.658 -29.593,175.408 -29.593,159.064C-29.593,142.718 -16.344,129.468 0,129.468C16.345,129.468 29.595,142.718 29.595,159.064C29.595,175.408 16.345,188.658 0,188.658M110.825,-34.532C39.14,2.984 -20.174,61.451 -57.314,132.13C-61.054,140.322 -63.155,149.441 -63.155,159.063C-63.155,194.479 -34.879,223.19 0,223.19C16.929,223.19 32.246,216.467 43.585,205.456C78.906,144.058 131.805,93.973 195.364,62.153C197.367,61.111 199.379,60.084 201.403,59.079C180.966,19.696 149.37,-12.913 110.825,-34.532" style="fill:rgb(236,236,236);"/>
        </g>
        <g transform="matrix(1,0,0,1,518.63,288.828)">
            <path d="M0,188.658C-16.344,188.658 -29.593,175.408 -29.593,159.064C-29.593,142.718 -16.344,129.468 0,129.468C16.345,129.468 29.595,142.718 29.595,159.064C29.595,175.408 16.345,188.658 0,188.658M110.825,-34.532C39.14,2.984 -20.174,61.451 -57.314,132.13C-61.054,140.322 -63.155,149.441 -63.155,159.063C-63.155,194.479 -34.879,223.19 0,223.19C16.929,223.19 32.246,216.467 43.585,205.456C78.906,144.058 131.805,93.973 195.364,62.153C197.367,61.111 199.379,60.084 201.403,59.079C180.966,19.696 149.37,-12.913 110.825,-34.532" style="fill:rgb(236,236,236);"/>
        </g>
        <g transform="matrix(1,0,0,1,383.722,850.541)">
            <path d="M0,-194.878L280.172,-153.842C288.291,-152.652 293.99,-145.214 293.001,-137.067C290.771,-118.7 284.157,-86.037 264.554,-55.878C249.317,-32.438 231.333,-14.148 219.055,-3.023C212.64,2.79 207.186,5.12 201.703,-1.578C193.279,-11.871 171.084,-27.5 134.554,-28.878C99.531,-30.2 78.303,-18.607 67.933,-10.591C62.626,-6.488 55.25,-6.431 49.825,-10.375C27.994,-26.246 -22.944,-68.283 -48.446,-130.878C-48.667,-131.422 -48.886,-131.962 -49.101,-132.498C-62.257,-165.288 -34.957,-199.998 0,-194.878" style="fill:white;fill-rule:nonzero;"/>
        </g>
        <g transform="matrix(1,0,0,1,552.122,825.902)">
            <path d="M0,-145.949L-190.698,-173.939C-212.698,-175.939 -232.039,-154.635 -224.698,-124.939C-213.799,-80.853 -187.698,-27.939 -123.341,25.443C-117.858,29.99 -110.316,27.737 -103.996,24.452C-91.698,18.061 -65.901,5.091 -45.698,2.061C-25.698,-0.939 11.303,6.061 11.303,6.061C23.244,-32.6 17.073,-102.86 13.853,-131.392C13.016,-138.802 7.358,-144.747 0,-145.949" style="fill:rgb(249,242,234);fill-rule:nonzero;"/>
        </g>
        <g transform="matrix(1,0,0,1,400.343,685.177)">
            <path d="M0,34.245L-20.781,31.532L-34.797,47.112L-38.638,26.511L-57.787,17.995L-39.38,7.975L-37.199,-12.867L-21.982,1.542L-1.485,-2.824L-10.487,16.1L0,34.245Z" style="fill:white;fill-rule:nonzero;"/>
        </g>
        <g transform="matrix(1,0,0,1,444.875,754.698)">
            <path d="M0,59.88L-13.538,43.882L-34.391,45.965L-23.359,28.147L-31.784,8.957L-11.429,13.942L4.217,0L5.767,20.9L23.861,31.472L4.463,39.403L0,59.88Z" style="fill:white;fill-rule:nonzero;"/>
        </g>
        <g transform="matrix(1,0,0,1,531.875,758.698)">
            <path d="M0,59.88L-13.538,43.882L-34.391,45.965L-23.359,28.147L-31.784,8.957L-11.429,13.942L4.217,0L5.767,20.9L23.862,31.472L4.463,39.403L0,59.88Z" style="fill:white;fill-rule:nonzero;"/>
        </g>
        <g transform="matrix(1,0,0,1,474.527,680.412)">
            <path d="M0,59.88L-13.538,43.882L-34.391,45.965L-23.359,28.147L-31.784,8.957L-11.429,13.942L4.217,0L5.767,20.9L23.861,31.472L4.463,39.403L0,59.88Z" style="fill:white;fill-rule:nonzero;"/>
        </g>
        <g transform="matrix(0,-1,-1,0,465.33,536.489)">
            <path d="M-27.595,-27.595C-38.872,-27.595 -48.015,-15.24 -48.015,0C-48.015,15.239 -38.872,27.595 -27.595,27.595C-16.317,27.595 -7.175,15.239 -7.175,0C-7.175,-15.24 -16.317,-27.595 -27.595,-27.595" style="fill:rgb(206,124,118);fill-rule:nonzero;"/>
        </g>
        <g transform="matrix(-0.964763,-0.263122,-0.263122,0.964763,473.739,431.639)">
            <path d="M-18.668,2.5L0.335,2.5" style="fill:none;fill-rule:nonzero;stroke:rgb(26,26,26);stroke-width:4px;"/>
        </g>
        <g transform="matrix(-0.739232,-0.67345,-0.67345,0.739232,490.042,413.003)">
            <path d="M-16.525,6.398L2.478,6.398" style="fill:none;fill-rule:nonzero;stroke:rgb(26,26,26);stroke-width:4px;"/>
        </g>
        <g transform="matrix(1,0,0,1,572.145,714.029)">
            <path d="M0,31.868L-47.954,33.969C-54.548,34.257 -60.179,29.098 -60.468,22.505L-60.905,12.514C-61.194,5.921 -56.036,0.29 -49.442,0.001L-1.488,-2.1C5.105,-2.389 10.736,2.769 11.025,9.363L11.463,19.354C11.752,25.948 6.594,31.579 0,31.868" style="fill:rgb(249,231,197);fill-rule:nonzero;"/>
        </g>
        <g transform="matrix(1,0,0,1,562.425,648.179)">
            <path d="M0,79.784C26.016,105.8 56.646,104.129 72.14,83.239C90.725,57.597 60.813,28.707 19.374,3.237C-7.664,-13.383 -45.745,-26.016 -56.844,-11.336C-64.739,-0.229 -49.489,23.685 -31.304,43.789C-24.94,50.825 -14,59.784 -13,64.784" style="fill:none;fill-rule:nonzero;stroke:rgb(247,214,161);stroke-width:6px;stroke-linecap:butt;stroke-linejoin:miter;"/>
        </g>
        <g transform="matrix(0.806444,0.591311,0.591311,-0.806444,604.33,726.517)">
            <ellipse cx="10.212" cy="13.925" rx="17.07" ry="17.268" style="fill:none;stroke:rgb(247,214,161);stroke-width:6px;stroke-linecap:butt;stroke-linejoin:miter;"/>
        </g>
        <g transform="matrix(1,0,0,1,497.555,683.744)">
            <path d="M0,-52.789C-15.546,-31.588 0.375,-2.641 29.974,21.203C29.974,21.203 52.925,1.374 51.416,-8.036C50.817,-11.768 46.084,-13.742 43.39,-14.342C39.051,-15.309 35.215,-12.641 30.164,-16.378C25.407,-19.893 24.558,-26.844 28.301,-31.947C28.315,-31.966 28.331,-31.984 28.347,-32.004C28.359,-32.025 28.374,-32.047 28.388,-32.066C32.128,-37.167 39.013,-38.45 43.797,-34.971C48.878,-31.275 47.488,-26.814 49.714,-22.97C51.098,-20.578 54.402,-16.658 58.141,-17.208C67.568,-18.6 79.583,-46.449 79.583,-46.449C47.942,-67.509 15.547,-73.992 0,-52.789" style="fill:rgb(249,231,197);fill-rule:nonzero;"/>
        </g>
        <g transform="matrix(1,0,0,1,432.096,159.434)">
            <path d="M0,71.951C0,71.918 0.001,71.884 0.001,71.85C0.064,71.874 0.128,71.902 0.191,71.924C0.127,71.933 0.063,71.942 0,71.951M193.243,73.502L193.244,73.502C193.179,71.761 183.054,42.437 145.882,19.616C133.811,12.205 104.96,6.43 101.91,6.012C101.909,6.012 103.822,-12.324 104.747,-17.621C105.835,-23.855 105.63,-23.969 95.401,-23.903C78.906,-23.796 82.164,-24.425 83.913,-15.182C85.086,-8.98 89.7,4.288 89.7,4.288C89.7,4.288 53.282,8.819 21.546,34.807C9.013,45.071 -1.432,72.074 -1.432,72.074C-2.369,72.979 -4.849,72.345 -5.431,73.603C-5.579,77.366 -4.544,92.884 -4.544,92.883L-4.544,92.885C28.32,89.951 61.43,88.358 94.658,88.158C126.621,87.966 158.531,89.221 189.417,95.577C193.296,96.376 193.652,95.553 194.262,93.412C195.744,88.224 202.908,73.749 193.243,73.502" style="fill:rgb(249,231,197);fill-rule:nonzero;"/>
        </g>
        <g transform="matrix(1,0,0,1,430.018,250.954)">
            <path d="M0,-19.036L0.001,-19.139C0.065,-19.115 0.13,-19.086 0.194,-19.063C0.129,-19.054 0.064,-19.045 0,-19.036M196.925,-17.455L196.925,-17.456C196.86,-19.23 4.491,-24.89 -5.535,-17.352C-8.938,-12.356 -4.631,2.296 -4.631,2.295L-4.631,2.297C28.86,-0.693 62.6,-2.316 96.461,-2.52C129.033,-2.716 161.551,-1.437 193.025,5.04C196.979,5.854 197.341,5.015 197.964,2.834C199.473,-2.453 206.773,-17.204 196.925,-17.455" style="fill:rgb(247,217,169);fill-rule:nonzero;"/>
        </g>
    </g>
</svg>
