<?xml version="1.0" encoding="utf-8"?>
<!-- Generator: Adobe Illustrator 22.0.1, SVG Export Plug-In . SVG Version: 6.00 Build 0)  -->
<svg version="1.1" xmlns="http://www.w3.org/2000/svg" xmlns:xlink="http://www.w3.org/1999/xlink" x="0px" y="0px"
	 viewBox="0 0 771 1160" enable-background="new 0 0 771 1160" xml:space="preserve">
<g id="Layer_1">
	<g>
		<path fill-rule="evenodd" clip-rule="evenodd" fill="#FABF37" d="M519.925,545.317c81.121,57.363,142.529,140.807,172.149,238.127
			c45.201-98.938,78.94-203.455,78.94-295.065c0-31.12-4.564-61.167-13.038-89.515C664.867,424.038,582.651,475.719,519.925,545.317
			z"/>
		<path fill-rule="evenodd" clip-rule="evenodd" fill="#DA7F0A" d="M519.925,545.317c62.499-68.623,145.791-121.505,238.033-146.448
			c-5.623-18.941-12.961-37.306-21.845-54.123c-0.013-0.001-0.025-0.001-0.038-0.002c0.011,0.021,0.023,0.042,0.034,0.064
			c-2.773,1.377-5.529,2.784-8.273,4.211C640.897,392.542,568.309,461.38,519.925,545.317z"/>
		<path fill="#A7A5A6" d="M444.003,460.602c4.225,0,7.649,3.424,7.649,7.649c0,4.224-3.424,7.648-7.649,7.648
			c-4.224,0-7.648-3.424-7.648-7.648C436.355,464.026,439.779,460.602,444.003,460.602z"/>
		<path fill-rule="evenodd" clip-rule="evenodd" fill="#47260B" d="M335.628,204.226c38.514-17.25,80.67-26.994,125.565-26.994
			c45.87,0,89.406,10.021,128.572,27.985c-32.802-26.298-71.519-45.519-113.858-55.318c-28.459-6.181-58.006-9.438-88.314-9.438
			c-0.985,0-1.972-0.015-2.96-0.04C262.945,139.567,152.225,86.328,76.854,2c46.678,96.462,143.199,168.657,246.941,199.077
			C327.181,202.07,331.483,203.218,335.628,204.226z"/>
		<path fill-rule="evenodd" clip-rule="evenodd" fill="#47260B" d="M7.735,198.894c62.767-6.558,125.531-2.921,184.885,14.442
			c-12.836-12.572-24.83-26.099-35.958-40.24C104.513,171.46,54.341,180.598,7.735,198.894z"/>
		<path fill-rule="evenodd" clip-rule="evenodd" fill="#351B08" d="M217.716,297.458c-89.874-9.589-153.801,41.146-154.839,42.203
			c18.884-12.637,39.901-18.699,64.316-18.699c22.837,0,45.184,7.591,62.992,18.766C198.404,325.078,207.53,311.156,217.716,297.458
			z"/>
		<path fill-rule="evenodd" clip-rule="evenodd" fill="#D13926" d="M612.032,216.577c-44.684-25.102-94.631-39.583-149.47-39.583
			c-171.111,0-309.821,139.297-309.821,311.128c0,277.644,309.821,673.877,309.821,673.877s126.086-161.263,217.389-350.116
			c-17.87-89.848-62.112-171.497-124.031-234.081c-0.034,0.034-0.069,0.063-0.102,0.097c-24.431,24.23-58.062,39.201-95.192,39.201
			c-74.656,0-135.179-60.51-135.179-135.155c0-70.333,53.738-128.1,122.398-134.54C493.29,294.136,549.181,249.47,612.032,216.577z"
			/>
		<path fill="#231F20" d="M460.223,441.227c-22.388,0-40.538,18.149-40.538,40.54c0,22.389,18.15,40.539,40.538,40.539
			c22.39,0,40.539-18.149,40.539-40.539C500.762,459.377,482.613,441.227,460.223,441.227z M444.003,475.899
			c-4.224,0-7.648-3.424-7.648-7.648c0-4.225,3.424-7.649,7.648-7.649c4.225,0,7.649,3.424,7.649,7.649
			C451.652,472.475,448.228,475.899,444.003,475.899z"/>
		<path fill="#7C481E" d="M199.173,281.332c-49.439,3.851-98.926,25.427-136.296,58.329c4.31-3.578,67.406-51.531,154.839-42.203
			l0,0C211.723,291.89,205.552,286.518,199.173,281.332z"/>
		<path fill-rule="evenodd" clip-rule="evenodd" fill="#47260B" d="M185.111,270.463L185.111,270.463
			c-46.053,11.376-89.42,37.002-122.234,69.197c37.245-32.812,86.988-54.398,136.296-58.329
			C194.591,277.607,189.883,273.982,185.111,270.463z"/>
		<path fill-rule="evenodd" clip-rule="evenodd" fill="#351B08" d="M217.716,297.458c10.038-12.332,21.177-25.234,33.101-36.459
			c-0.005,0.305,0,0.164,0,0c-44.013-27.118-93.834-47.14-147.777-56.804c-30.468-5.458-93.863-5.867-95.304-5.301
			c5.972,0.781,12.43,1.944,18.423,3.018C100.318,215.197,166.303,250.879,217.716,297.458z"/>
		<path fill="#7C481E" d="M192.621,213.337C192.503,213.302,192.74,213.37,192.621,213.337
			c-58.849-17.215-122.653-20.775-184.885-14.442c10.209-0.344,67.368,0.296,95.304,5.301
			c53.943,9.664,103.764,29.687,147.777,56.804c-0.002-0.001,0.002,0.001,0,0C230.044,246.883,210.511,230.953,192.621,213.337z"/>
		<path fill-rule="evenodd" clip-rule="evenodd" fill="#351B08" d="M250.817,260.999C251.084,260.749,250.53,261.25,250.817,260.999
			c17.71-16.551,38.092-31.715,59.289-43.772c-0.18-0.069,0.192,0.068,0,0C205.42,181.71,120.514,103.208,76.854,2
			C99.37,109.286,163.483,201.654,250.817,260.999z"/>
		<path fill="#7C481E" d="M335.628,204.226c-4.151-1.009-8.442-2.155-11.833-3.149C220.052,170.657,123.532,98.462,76.854,2
			c43.659,101.205,128.571,179.709,233.252,215.227C318.377,212.523,326.905,208.165,335.628,204.226z"/>
		<g>
			<g>
				<path fill-rule="evenodd" clip-rule="evenodd" fill="#CA3322" d="M692.075,783.444c-24.77-81.384-71.781-153.051-133.948-207.89
					c-0.761,0.792-1.532,1.575-2.312,2.348v0c0,0,0.002-0.002,0.003-0.003c0.034-0.033,0.069-0.063,0.102-0.097
					c61.919,62.583,106.162,144.233,124.031,234.081C685.888,799.603,693.372,780.604,692.075,783.444z"/>
				<path fill-rule="evenodd" clip-rule="evenodd" fill="#CA3322" d="M692.075,783.444c-24.77-81.384-71.781-153.051-133.948-207.89
					c-0.761,0.792-1.532,1.575-2.312,2.348v0c0,0,0.002-0.002,0.003-0.003c0.034-0.033,0.069-0.063,0.102-0.097
					c61.919,62.583,106.162,144.233,124.031,234.081C685.888,799.603,693.372,780.604,692.075,783.444z"/>
			</g>
		</g>
		<path fill-rule="evenodd" clip-rule="evenodd" fill="#333333" d="M519.925,545.317c-15.524,15.041-36.55,24.292-59.702,24.292
			c-47.779,0-86.511-39.328-86.511-87.842c0-13.181,2.878-25.673,8.001-36.893c18.314-34.851,40.581-67.52,66.14-97.478
			c-68.665,6.435-122.406,64.213-122.406,134.55c0,74.644,60.522,135.155,135.178,135.155c37.136,0,70.771-14.976,95.203-39.213
			c0.772-0.766,1.535-1.54,2.289-2.325c0.002-0.004,0.002-0.009,0.004-0.013C545.95,564.813,533.208,554.709,519.925,545.317z"/>
		<path fill-rule="evenodd" clip-rule="evenodd" fill="#ECECEC" d="M612.032,216.577
			c-98.195,51.389-179.444,131.479-230.319,228.296c-5.123,11.22-8.001,23.712-8.001,36.893c0,48.513,38.732,87.842,86.511,87.842
			c23.188,0,44.171-9.209,59.702-24.292c48.384-84.105,120.845-152.711,207.911-196.299c2.744-1.427,5.499-2.834,8.273-4.211
			C708.113,290.859,664.832,246.19,612.032,216.577z M460.223,522.306c-22.388,0-40.538-18.149-40.538-40.539
			c0-22.391,18.15-40.54,40.538-40.54c22.39,0,40.539,18.149,40.539,40.54C500.762,504.157,482.613,522.306,460.223,522.306z"/>
	</g>
</g>
<g id="Layer_4">
	<g>
		<g>
			<path fill="#A82B22" d="M415.33,1008.488c11.775,3.906,24.023,7.19,35.526,11.833c-1.28-0.517,0.016-0.016,0.533,0.29
				c0.582,0.292,1.141,0.621,1.68,0.985c0.776,0.494,0.719,0.467-0.172-0.082c-0.008-0.316-0.735-1.164-0.868-1.545
				c-0.51-1.266-0.413-2.322,0.291-3.169c0.328-0.467,0.28-0.358-0.144,0.326c0.295,0.296-0.754,0.599,0.354-0.112
				c-1.731,1.11-0.594,0.401-2.029,0.87c-2.378,0.778-4.877,0.618-7.512,0.689c-7.021,0.188-13,5.84-13,13c0,6.9,5.95,13.189,13,13
				c10.365-0.277,21.139-1.796,28.43-9.964c6.899-7.729,8.601-19.08,2.707-27.934c-5.184-7.787-14.058-10.713-22.494-13.511
				c-9.797-3.249-19.593-6.499-29.39-9.748c-6.663-2.21-14.2,2.56-15.992,9.08C404.306,999.574,408.643,1006.27,415.33,1008.488
				L415.33,1008.488z"/>
		</g>
	</g>
	<g>
		<g>
			<path fill="#A82B22" d="M373.542,939.427c10.128,9.931,14.042,24.082,10.901,37.075c-1.649,6.819,2.161,14.09,9.08,15.992
				c6.622,1.819,14.335-2.227,15.992-9.08c5.397-22.324-1.129-46.232-17.588-62.372C379.97,909.318,361.57,927.688,373.542,939.427
				L373.542,939.427z"/>
		</g>
	</g>
	<g>
		<g>
			<path fill="#A82B22" d="M349.14,660.57c14.138-25.365,8.765-60.136-14.029-78.807c-5.427-4.445-13.074-5.31-18.385,0
				c-4.587,4.587-5.458,13.914,0,18.385c8.074,6.614,11.674,12.838,13.751,22.983c0.089,0.433,0.563,4.149,0.35,1.955
				c0.11,1.135,0.182,2.272,0.219,3.411c0.082,2.488,0.042,5.025-0.292,7.494c0.299-2.214-0.444,1.898-0.447,1.911
				c-0.302,1.325-0.663,2.64-1.076,3.935c-0.868,2.716-0.766,2.426-2.542,5.612C318.536,662.077,340.984,675.203,349.14,660.57
				L349.14,660.57z"/>
		</g>
	</g>
	<g>
		<g>
			<path fill="#A82B22" d="M320.26,631.443c-1.381,7.008-0.415,13.628,3.453,19.713c1.848,2.907,4.156,5.57,6.391,8.185
				c1.932,2.26,2.618,2.938,3.697,4.758c2.005,3.384,2.02,7.444,1.346,11.418c-1.063,6.267-3.395,12.315-5.727,18.199
				c-2.588,6.529,2.833,14.275,9.08,15.992c7.391,2.031,13.394-2.526,15.992-9.08c4.951-12.493,8.788-25.823,5.885-39.305
				c-1.46-6.783-5.186-12.355-9.531-17.608c-0.771-0.932-1.571-1.84-2.357-2.759c0.058,0.068-2.46-3.062-1.554-1.797
				c-0.403-0.545-0.776-1.111-1.118-1.696c-0.431-0.824-0.474-0.754-0.128,0.208c-1.086-0.941,0.059-1.427-0.357,0.683
				c1.356-6.882-1.957-14.034-9.08-15.992C329.864,620.608,321.624,624.521,320.26,631.443L320.26,631.443z"/>
		</g>
	</g>
	<g>
		<g>
			<path fill="#A82B22" d="M341.913,773.786c1.846,1.232-0.085-0.259,0.881,0.612c0.776,0.699,1.478,1.456,2.235,2.174
				c0.566,0.537,1.159,1.368,0.328,0.263c0.624,0.829,1.17,1.724,1.694,2.617c0.527,0.898,1.021,1.82,1.457,2.766
				c-0.579-1.257-0.136-0.416,0.1,0.386c0.596,2.022,1.221,4.012,1.528,6.105c-0.207-1.409-0.047-0.655-0.052,0.304
				c-0.005,1.051,0.073,2.095,0.044,3.148c-0.029,1.04-0.069,2.104-0.217,3.133c0.205-1.42,0.124-0.669-0.168,0.246
				c-0.313,0.983-0.542,2.013-0.841,3.004c-0.147,0.488-1.299,2.808-0.331,0.93c-0.381,0.739-0.766,1.476-1.196,2.188
				c-0.094,0.157-2.336,3.119-0.923,1.426c-4.497,5.386-5.278,13.107,0,18.385c4.624,4.625,13.864,5.415,18.385,0
				c17.922-21.465,13.641-54.487-9.802-70.137c-5.841-3.9-14.392-1.139-17.786,4.664
				C333.519,762.377,336.058,769.877,341.913,773.786L341.913,773.786z"/>
		</g>
	</g>
	<g>
		<g>
			<path fill="#A82B22" d="M319.952,460.053c3.097-9.646,6.195-19.293,9.292-28.939c-8.357-2.304-16.714-4.608-25.071-6.912
				c-1.185,4.527-2.37,9.054-3.556,13.581c-1.628,6.218,1.54,12.928,7.527,15.336c6.303,2.535,12.425,0.133,16.234-5.319
				c2.277-3.259,4.553-6.518,6.83-9.777c-7.92-3.339-15.84-6.678-23.761-10.017c-0.667,4.128-1.333,8.255-2,12.383
				c-1.118,6.923,1.793,13.989,9.08,15.992c7.179,1.973,13.65-2.434,15.992-9.08c1.458-4.138,2.916-8.275,4.373-12.413
				c-8.357-2.304-16.714-4.608-25.071-6.912c-16.444,48.97-19.312,101.705-9.151,152.29c2.32,11.552,18.14,11.917,23.761,3.105
				c5.923-9.285,10.376-19.529,13.224-30.166c-8.512-1.152-17.024-2.304-25.536-3.456c8.017,75.918,16.033,151.835,24.05,227.753
				c7.138,67.595,9.351,143.109,51.999,199.648c10.84,14.37,23.557,26.984,38.767,36.731c3.308,2.12,6.812,3.915,10.098,6.066
				c1.891,1.237,1.314,0.731,2.894,2.264c0.47,0.456,0.991,0.925,1.39,1.447c-1.109-1.447-0.086,1.362-0.164,0.037
				c-0.026-0.446-0.459-1.055-0.506-1.566c-0.153-1.655,1.16-2.698,1.716-3.883c0.184-0.391,0.851-0.305,1.159-0.478
				c-2.12,1.187,0.12,0.338-0.979,0.289c-0.401-0.018-1.191-0.192-2.486-0.774c-2.309-1.037-4.427-2.629-6.517-4.038
				c-3.339,7.92-6.678,15.841-10.017,23.761c6.56,2.126,12.512,7.133,16.293,13.484c0.471,0.791,0.919,1.597,1.343,2.414
				c-0.004-0.008,1.576,3.627,0.935,1.934c0.731,1.93,1.319,3.917,1.773,5.93c0.14,0.62,0.574,3.063,0.338,1.279
				c0.149,1.128,0.2,2.282,0.231,3.42c0.031,1.147-0.032,2.284-0.046,3.429c-0.032,2.584,0.267-0.764-0.247,2.006
				c5.331-3.026,10.661-6.053,15.992-9.08c-22.583-9.271-45.166-18.543-67.748-27.814c-5.23-2.147-12.028,1.439-14.681,5.974
				c-2.911,4.977-2.04,11.674,2.033,15.754c7.827,7.841,15.655,15.683,23.482,23.524c11.836,11.858,30.225-6.523,18.385-18.385
				c-7.827-7.841-15.655-15.683-23.482-23.524c-4.216,7.243-8.432,14.485-12.648,21.728c22.583,9.271,45.166,18.543,67.748,27.814
				c6.133,2.518,14.823-2.777,15.992-9.08c5.262-28.368-11.133-56.917-38.78-65.877c-6.094-1.975-13.033,1.801-15.336,7.527
				c-2.505,6.228-0.189,12.522,5.319,16.234c8.239,5.552,17.371,9.764,27.514,7.761c10.008-1.976,18.21-10.306,18.641-20.725
				c0.782-18.901-19.601-26.035-32.246-35.212c-23.477-17.038-40.154-45.09-49.582-72.411
				c-12.217-35.406-15.738-72.862-19.647-109.879c-4.217-39.939-8.435-79.879-12.652-119.818
				c-4.775-45.221-9.55-90.441-14.325-135.661c-0.679-6.426-4.423-11.953-11.272-12.768c-6.304-0.75-12.558,2.943-14.264,9.312
				c-2.314,8.641-5.792,16.412-10.603,23.955c7.92,1.035,15.84,2.07,23.761,3.105c-9.258-46.088-5.793-93.962,9.151-138.466
				c2.235-6.655-2.577-14.205-9.08-15.992c-7.179-1.973-13.65,2.434-15.992,9.08c-1.458,4.138-2.916,8.275-4.373,12.413
				c8.357,2.304,16.714,4.608,25.071,6.912c0.667-4.128,1.333-8.256,2-12.383c2.34-14.487-15.023-22.525-23.761-10.017
				c-2.277,3.259-4.553,6.518-6.83,9.777c7.92,3.339,15.84,6.678,23.761,10.017c1.185-4.527,2.37-9.054,3.556-13.581
				c4.258-16.265-19.972-22.794-25.071-6.912c-3.097,9.646-6.195,19.293-9.292,28.939c-2.146,6.683,2.514,14.187,9.08,15.992
				C310.986,471.063,317.798,466.761,319.952,460.053L319.952,460.053z"/>
		</g>
	</g>
	<g>
		<g>
			<path fill="#A82B22" d="M327.638,457.657c-1.822-8.722-3.644-17.444-5.466-26.167c-1.134-5.428-10.431-4.321-9.821,1.329
				c9.937,92.117,19.874,184.234,29.811,276.351c2.788,25.846,5.576,51.692,8.364,77.537c0.683,6.331,10.69,6.401,10,0
				c-9.937-92.117-19.874-184.234-29.811-276.351c-2.788-25.846-5.576-51.692-8.364-77.537c-3.274,0.443-6.548,0.886-9.821,1.329
				c1.822,8.722,3.644,17.444,5.466,26.167C319.31,466.611,328.952,463.946,327.638,457.657L327.638,457.657z"/>
		</g>
	</g>
	<g>
		<g>
			<path fill="#A82B22" d="M317.002,452.955c3.28,86.181,6.56,172.362,9.841,258.543c0.934,24.528,1.867,49.057,2.801,73.585
				c0.244,6.415,10.245,6.446,10,0c-3.28-86.181-6.56-172.362-9.841-258.543c-0.934-24.528-1.867-49.057-2.801-73.585
				C326.758,446.54,316.757,446.509,317.002,452.955L317.002,452.955z"/>
		</g>
	</g>
	<g>
		<defs>
			<path id="XMLID_11_" d="M460.408,1052.903c-9.288-0.091-18.511-1.069-27.544-2.886c4.024,0.187,8.08,0.096,12.144-0.332
				c6.301-0.663,6.553-9.696,0-10c-8.981-0.417-17.795-2.155-26.185-5.049c0.068-0.203,0.119-0.409,0.162-0.616
				c3.395,0.54,6.842,0.866,10.327,0.936c5.06,0.101,6.669-6.794,2.524-9.317c-5.533-3.368-11.067-6.736-16.6-10.103
				c14.161,2.609,28.698,3.211,43.126,1.663c6.477-0.695,6.367-9.182,0-10c-5.436-0.698-10.876-1.376-16.317-2.052
				c0.417-2.191-0.521-4.429-3.519-5.034c-6.578-1.328-13.05-3.006-19.405-4.999c-0.816-9.579-13.051-12.762-20.414-15.553
				c-3.421-1.297-6.842-2.593-10.262-3.89c2.514-8.718,1.102-18.783-3.983-26.293c-1.767-11.428-11.056-22.678-22.798-25.093
				c-1.377-14.688-1.074-29.723-1.59-44.41c-0.605-17.201-1.209-34.402-1.814-51.602c-0.242-6.885-2.902-14.055-7.4-19.599
				c1.553-1.448,2.938-2.994,4.083-4.476c3.909-5.06,6.736-11.606,6.441-18.177c-0.419-9.349-4.398-17.206-10.937-22.713
				c0.326-3.483,0.053-7.053-1.048-10.855c-0.896-3.095-2.179-6.151-3.255-9.188c-0.635-1.791-1.269-3.582-1.904-5.373
				c0.123-0.186,0.247-0.372,0.37-0.559c5.037-7.607,5.139-18.098,1.564-26.97c1.391-7.715-1.405-16.053-5.912-22.146
				c0.802-5.201,1.605-10.403,2.407-15.604c1.139-7.38,1.504-14.962-2.196-21.721c2.33-8.557,0.04-17.385-5.051-24.318
				c1.014-4.745,1.081-9.366,0.032-13.92c1.379-4.453,1.682-9.248,0.987-13.897c0.731-2.714,1.101-5.391,0.999-7.663
				c-0.286-6.385-2.08-12.086-5.772-17.237c0.002-0.009,0.005-0.017,0.007-0.026c2.106-9.87,0.458-19.729-6.086-27.411
				c0.919-4.417,0.815-9.009-0.597-13.373c-0.433-1.339-0.957-2.646-1.555-3.919c0.305-1.189,0.564-2.415,0.737-3.708
				c0.737-5.488,0.106-10.441-2.048-15.546c-0.615-1.456-1.388-2.999-2.294-4.522c3.046-5.636,3.974-11.993,3.126-18.303
				c-0.261-1.94-0.719-3.812-1.325-5.613c4.651-11.058,2.623-25.775-6.3-33.461c-0.149-0.129-0.302-0.252-0.453-0.379
				c0.312-1.662,0.5-3.349,0.545-5.039c3.294-6.217,4.612-13.779,2.905-20.392c0.266-0.545,0.522-1.105,0.766-1.684
				c3.701-8.771,3.325-18.341-1.512-26.7c-2.724-4.709-6.145-8.732-10.062-12.053c0.853-6.889-0.483-14.16-3.666-19.795
				c-10.374-18.362-33.016-24.626-51.514-18.375c-6.586-0.92-14.26,0.245-19.654,3.723c-12.074,7.785-19.68,25.512-12.036,39.017
				c-1.124,4.013-1.673,8.228-1.542,12.523c0.356,11.652,5.103,22.024,12.65,29.929c0.5,2.022,1.135,4.003,1.889,5.934
				c0.448,4.988,1.829,9.827,4.001,14.318c-1.619,8.287-0.86,17.048,2.127,24.957c-0.216,1.603-0.341,3.236-0.357,4.901
				c-0.057,6.046,1.185,11.932,3.5,17.34c-0.905,3.699-1.334,7.562-1.18,11.541c0.306,7.93,2.674,15.365,6.635,21.859
				c-0.074,1.12-0.119,2.245-0.101,3.378c0.142,9.136,3.484,17.196,8.766,23.627c-3.352,4.7-5.329,10.309-5.054,16.45
				c0.431,9.63,4.757,18.026,11.871,23.591c-0.434,2.076-0.639,4.081-0.56,5.842c0.025,0.567,0.066,1.127,0.116,1.681
				c-0.371,1.964-0.603,3.953-0.642,5.955c-0.142,7.295,1.888,14.342,5.549,20.434c-0.01,2.239,0.134,4.494,0.438,6.753
				c0.554,4.125,1.734,8.008,3.416,11.594c-5.374,12-0.738,25.426,8.634,33.721c-0.746,4.837-1.492,9.673-2.239,14.51
				c-1.203,7.797-1.056,14.536,2.154,21.03c-0.333,3.398,0.061,6.963,1.06,10.432c-0.969,5.745-0.232,11.609,1.947,17.758
				l6.071,17.136c-0.885,7.175-0.145,14.381,2.564,21.749c-1.467,4.304-2.29,8.901-2.381,13.246c-0.004,0.169,0.001,0.333-0.001,0.5
				c-3.14,8.679-3.619,18.305-0.916,27.316c1.924,6.414,5.281,12.566,9.746,17.716c0.769,21.877,1.538,43.754,2.307,65.631
				c0.57,16.214,1.043,32.341,8.603,47.111c1.219,2.381,2.676,4.685,4.328,6.884c0.785,4.664,2.598,9.224,5.356,13.058
				c-0.757,1.299-1.514,2.598-2.271,3.897c-7.628,13.092-3.86,32.079,9.294,40.2c-2.179,16.731-1.059,33.852,3.368,50.285
				c1.572,5.834,9.183,3.959,9.821-1.329c0.458-3.797,0.917-7.595,1.375-11.392c3.139,1.773,7.761,0.721,7.442-3.943
				c-0.139-2.034-0.279-4.068-0.418-6.103c1.674,6.393,3.347,12.786,5.021,19.18c1.526,5.829,9.22,3.968,9.821-1.329
				c0.925-8.144,1.849-16.287,2.774-24.431c0.043,0.041,0.086,0.082,0.129,0.123c6.457,13.003,16.966,23.916,30.275,30.494
				c5.263,2.601,9.604-3.45,6.059-7.853c-2.258-2.805-4.517-5.61-6.775-8.415c0.718-1.673,0.596-3.713-0.963-5.373
				c-1.639-1.745-3.204-3.546-4.733-5.372c21.772,11.181,46.053,17.323,70.782,17.565
				C466.845,1062.966,466.85,1052.966,460.408,1052.903z M349.17,794.404c0.032,0.239,0.064,0.478,0.096,0.718
				c-0.429-1.323-0.939-2.667-1.508-4.061C348.229,792.174,348.7,793.289,349.17,794.404z"/>
		</defs>
		<use xlink:href="#XMLID_11_"  overflow="visible" fill="#603813"/>
		<clipPath id="XMLID_6_">
			<use xlink:href="#XMLID_11_"  overflow="visible"/>
		</clipPath>
		<path clip-path="url(#XMLID_6_)" fill="#512C0D" d="M467.824,995.037c-25.325,0.033-49.983-6.357-72.075-18.618
			c1.416-19.145-8.551-37.997-24.913-47.938c-0.142-1.674-0.283-3.347-0.425-5.021c-0.363-4.29-3.047-7.948-6.834-9.117
			c3.885-20.246,6.552-40.741,3.565-61.325c-1.771-12.205-6.745-23.49-9.167-35.524c-0.147-0.729-0.279-1.459-0.398-2.19
			c9.956-17.831,3.405-38.129-1.496-56.639c-5.303-20.029,0.676-41.218-8.081-60.471c-0.642-1.413-1.714-2.496-3.003-3.263
			c-0.521-2.681-2.574-4.709-5.069-5.807c5.624,1.089,12.397-2.406,11.662-9.007L331.85,502.943
			c-0.464-4.168-2.818-7.867-6.688-9.08l4.724-24.905c6.987-0.079,14.046,0.717,21.158,2.641
			c11.818,3.197,16.86-15.127,5.051-18.321c-10.493-2.838-20.85-3.685-31.04-3.05c-0.147-0.048-0.288-0.104-0.44-0.145
			c-2.281-0.627-4.91-0.253-7.11,0.886c-28.184,3.742-55,18.081-79.736,32.18c-10.622,6.055-1.06,22.476,9.59,16.406
			c19.408-11.063,40.596-23.122,62.788-28.172c-0.765,4.034-1.53,8.068-2.295,12.102c-0.846,4.461-1.692,8.922-2.539,13.383
			c-1.108,5.841-1.044,8.648,1.843,13.846c6.835,12.306,6.916,26.853,1.788,39.75c-1.269,3.193,0.355,6.882,2.443,9.243
			c10.071,11.389,11.357,28.817,3.789,41.825c-2.317,3.982-1.201,8.165,1.485,11.512c9.101,11.339,9.237,30.054,0.203,41.482
			c-3.179,4.021-3.925,9.51,0,13.435c2.065,2.065,5.551,3.13,8.656,2.648c1.783,5.977,5.039,11.562,9.851,16.228
			c0.685,0.664,1.474,1.188,2.326,1.582c-1.474-0.299-2.983-0.294-4.341,0.079c-5.385,1.48-7.464,6.604-6.635,11.686
			c3.071,18.831,5.577,37.744,8.111,56.653c0.382,2.848,0.818,5.71,1.249,8.579c-1.079,1.461-1.675,3.288-1.479,5.424
			c0.668,7.265,1.335,14.53,2.003,21.795c-1.44,3.743-3.853,7.159-7.021,9.804c-7.891,6.59,0.788,17.893,9.366,15.743
			c1.916,11.119,6.119,21.529,8.553,32.569c5.302,24.051-0.179,49.124-5.125,72.744c-0.279,1.332-0.278,2.649-0.064,3.903
			c-0.547,0.882-0.99,1.858-1.286,2.938c-0.055,0.199-0.076,0.406-0.119,0.608c-1.457,2.687-2.915,5.374-4.372,8.061
			c-2.388,4.403-1.817,10.321,1.678,13.892c1.303,1.973,3.161,3.586,5.253,4.469c3.183,1.343,6.522,1.143,9.372-0.241
			c11.409,6.354,17.798,17.967,16.863,30.995c-0.404,5.636,4.682,10.665,9.971,11.295c2.865,0.341,5.323-0.259,7.361-1.545
			c24.807,13.235,52.616,20.207,80.788,20.17C482.622,1018.018,482.649,995.018,467.824,995.037z"/>
		<g clip-path="url(#XMLID_6_)">
			<g>
				<path fill="#B79274" d="M280.949,679.037c23.832-13.346,51.903-17.696,78.639-12.022c0.443-3.274,0.886-6.548,1.329-9.821
					c-42.333-2.449-84.693,6.453-122.584,25.436c-5.187,2.599-1.508,10.478,3.853,9.139c35.249-8.804,71.497-12.265,107.778-10.39
					c0-3.333,0-6.667,0-10c-37.557-1.513-75.125,9.824-105.49,31.997c-4.197,3.065-1.925,11.205,3.853,9.139
					c34.236-12.241,70.522-16.885,106.738-13.678c0-3.333,0-6.667,0-10c-37.811-2.314-75.776,6.957-108.327,26.315
					c-4.753,2.827-1.671,10.928,3.853,9.139c35.872-11.622,73.24-17.41,110.948-17.132c0-3.333,0-6.667,0-10
					c-39.886,4.716-78.529,15.851-114.773,33.171c-4.308,2.059-2.389,9.944,2.524,9.317c35.826-4.569,71.652-9.137,107.479-13.706
					c6.297-0.803,6.377-10.813,0-10c-35.826,4.569-71.652,9.137-107.479,13.706c0.841,3.106,1.682,6.212,2.524,9.317
					c34.527-16.499,71.718-27.312,109.726-31.806c6.218-0.735,6.612-9.951,0-10c-38.532-0.283-76.948,5.613-113.606,17.489
					c1.284,3.046,2.569,6.093,3.853,9.139c31.145-18.521,67.122-27.163,103.28-24.949c6.471,0.396,6.335-9.439,0-10
					c-36.99-3.275-74.43,1.534-109.397,14.035c1.284,3.046,2.569,6.092,3.853,9.139c29.085-21.239,64.446-32.082,100.442-30.632
					c6.447,0.26,6.405-9.669,0-10c-37.127-1.918-74.369,1.74-110.436,10.747c1.284,3.046,2.569,6.092,3.853,9.139
					c36.346-18.209,76.975-26.417,117.537-24.071c5.586,0.323,6.858-8.648,1.329-9.821c-29.404-6.24-60.104-1.665-86.345,13.031
					C270.286,673.547,275.322,682.188,280.949,679.037L280.949,679.037z"/>
			</g>
		</g>
		<g clip-path="url(#XMLID_6_)">
			<g>
				<path fill="#B79274" d="M289.42,763.637c25.665,0.419,49.145,16.496,59.261,40c1.776,4.126,7.808,0.565,6.044-3.533
					c-11.067-25.714-37.394-43.011-65.305-43.467C284.914,756.563,284.913,763.563,289.42,763.637L289.42,763.637z"/>
			</g>
		</g>
		<g clip-path="url(#XMLID_6_)">
			<g>
				<path fill="#B79274" d="M371.805,759.173c-38.05,3.162-73.178,23.425-94.952,54.792c-2.575,3.709,3.49,7.212,6.044,3.533
					c20.262-29.19,53.493-48.381,88.907-51.325C376.262,765.802,376.301,758.799,371.805,759.173L371.805,759.173z"/>
			</g>
		</g>
		<g clip-path="url(#XMLID_6_)">
			<g>
				<path fill="#B79274" d="M284.575,821.469c33.223-4.575,64.798,16.322,74.127,48.348c1.257,4.316,8.014,2.48,6.75-1.861
					c-10.496-36.03-45.699-58.337-82.738-53.237C278.272,815.331,280.163,822.077,284.575,821.469L284.575,821.469z"/>
			</g>
		</g>
		<g clip-path="url(#XMLID_6_)">
			<g>
				<path fill="#B79274" d="M358.738,819.614c-31.77,7.363-59.633,27.511-76.718,55.267c-2.368,3.847,3.684,7.367,6.044,3.533
					c16.173-26.276,42.495-45.089,72.535-52.051C364.986,825.347,363.129,818.596,358.738,819.614L358.738,819.614z"/>
			</g>
		</g>
		<g clip-path="url(#XMLID_6_)">
			<g>
				<path fill="#B79274" d="M287.568,882.758c35.441-5.673,73.03,9.907,94.103,38.95c2.62,3.611,8.696,0.122,6.044-3.533
					c-23.09-31.822-63.196-48.379-102.009-42.167C281.271,876.718,283.153,883.465,287.568,882.758L287.568,882.758z"/>
			</g>
		</g>
		<g clip-path="url(#XMLID_6_)">
			<g>
				<path fill="#B79274" d="M371.911,877.915c-35.457,0.333-69.212,19.744-87.328,50.227c-0.918,1.544-0.433,3.949,1.256,4.789
					c0.644,0.32,1.289,0.641,1.933,0.961c4.021,2,7.571-4.036,3.533-6.044c-0.644-0.32-1.288-0.641-1.933-0.961
					c0.419,1.596,0.837,3.192,1.256,4.789c16.865-28.378,48.274-46.45,81.284-46.76
					C376.413,884.872,376.425,877.872,371.911,877.915L371.911,877.915z"/>
			</g>
		</g>
		<g clip-path="url(#XMLID_6_)">
			<g>
				<path fill="#B79274" d="M300.599,909.463c5.303,13.924,19.817,19.243,33.227,22.444c18.86,4.501,38.343,5.95,57.667,4.481
					c4.464-0.339,4.5-7.342,0-7c-16.804,1.278-33.707,0.41-50.228-2.992c-11.951-2.461-28.986-5.848-33.916-18.793
					C305.761,903.433,298.991,905.242,300.599,909.463L300.599,909.463z"/>
			</g>
		</g>
		<g clip-path="url(#XMLID_6_)">
			<g>
				<path fill="#B79274" d="M365.416,915.109c-25.466,23.482-57.964,38.768-92.349,43.176c-4.407,0.565-4.463,7.572,0,7
					c36.335-4.658,70.348-20.375,97.299-45.226C373.685,916.998,368.725,912.057,365.416,915.109L365.416,915.109z"/>
			</g>
		</g>
	</g>
</g>
<g id="Layer_2">
	<g>
		<defs>
			<path id="XMLID_17_" d="M112.82,504c-9.193,27.28-24.683,70.091-48,121c-43.497,94.971-65,145-65,145s15.528,9.384,47,149
				c12.262,54.395,83,123,83,123s2-92,14-135c18.747-67.177,32.972-122.285,35-158c5.385-94.854-14.32-175.928-36-235L112.82,504z"
				/>
		</defs>
		<use xlink:href="#XMLID_17_"  overflow="visible" fill="#8E2828"/>
		<clipPath id="XMLID_7_">
			<use xlink:href="#XMLID_17_"  overflow="visible"/>
		</clipPath>
		<path clip-path="url(#XMLID_7_)" fill="#701919" d="M109.82,499c-26.955,1.121-46.797,58.514-53,96
			c-1.858,11.226-9.045,60.265,22,144c41.626,112.276,95,184,95,184c10.471,14.071,33.129,43.017,30,79
			c-2.05,23.571-14.169,38.717-12,40c3.781,2.236,45.617-40.782,62-101c2.439-8.964,11.215-43.679,1-107
			c-20.681-128.198-80.102-131.238-88-231c-1.406-17.757-3.011-61.716-33-91C127.786,506.108,119.865,498.582,109.82,499z"/>
	</g>
	<path fill="#A03232" d="M150.82,529c0,0,101.497-52.923,239-111c43.018-18.169,92.723-39.163,161-49c116.898-16.841,199-13,199-13
		s-37.732-57.213-79-109c-51-64-132-73-132-73s-145.298-9.809-251,45c-81,42-148,179.534-148,212C139.82,479,150.82,529,150.82,529z
		"/>
	<path fill="#931F1F" d="M114.223,431.67c-22.576,19.334-10.704,55.511-9.231,60c1.558,4.748,12.868,39.211,40,41.539
		c22.748,1.951,41.939-19.946,47.693-40c7.038-24.53-3.614-54.716-27.692-66.154C150.334,420.092,128.81,419.178,114.223,431.67z"/>
	<path id="XMLID_16_" fill="#A03232" d="M123.82,498c-26.955,1.121-46.797,58.514-53,96c-1.858,11.226-9.045,60.265,22,144
		c41.626,112.276,95,184,95,184c10.471,14.071,33.129,43.017,30,79c-2.05,23.571-14.169,38.717-12,40
		c3.781,2.236,45.617-40.782,62-101c2.439-8.964,11.215-43.679,1-107c-20.681-128.198-80.102-131.238-88-231
		c-1.406-17.757-3.011-61.716-33-91C141.786,505.108,133.865,497.582,123.82,498z"/>
</g>
<g id="Layer_3">
	<g>
		<g>
			<defs>
				<path id="XMLID_4_" d="M480.474,205.898c-4.007-6.969-4.881-13.787,0.121-18.833c7.961-8.032,13.213,2.724,17.837-0.667
					c3.28-2.405,1.366-6.638,4.856-10.644c3.785-4.345,11.598-5.755,15.863-2.63c4.743,3.475,3.377,10.557,4.289,22.793
					c1.148,15.406,8.817,35.673,15.715,46.961c9.872,16.154,38.267,33.622,37.613,42.81c-0.366,5.147-4.123,10.564-8.646,12.366
					c-6.015,2.397-10.017-2.941-15.312-0.194c-5.091,2.641-3.658,8.751-8.822,11.302c-4.249,2.099-10.576,0.61-13.771-3.183
					c-4.392-5.213,0.082-11.279-0.412-23.983c-0.478-12.31-22.925-56.29-34.63-66.087
					C490.645,212.115,483.444,211.063,480.474,205.898z"/>
			</defs>
			<use xlink:href="#XMLID_4_"  overflow="visible" fill="#EDEDED"/>
			<clipPath id="XMLID_8_">
				<use xlink:href="#XMLID_4_"  overflow="visible"/>
			</clipPath>
			<g clip-path="url(#XMLID_8_)">
				<g>
					<path fill="#B2570B" d="M507.84,239.828c15.249-0.809,29.088-8.309,38.138-20.597c-0.645-0.377-1.289-0.754-1.934-1.131
						c-7.389,13.502-19.488,23.547-34.145,28.27c-1.159,0.373-1.015,2.249,0.298,2.2c15.592-0.577,30.141-7.142,40.851-18.495
						c-0.528-0.528-1.056-1.056-1.584-1.584c-10.021,11.728-22.808,20.401-37.44,25.303c-1.221,0.409-0.965,2.103,0.298,2.2
						c14.871,1.144,29.309-4.818,39.041-16.12c0.93-1.08-0.577-2.639-1.584-1.584c-8.504,8.909-18.169,16.416-28.906,22.449
						c-0.98,0.551-0.53,2.079,0.565,2.087c13.917,0.101,27.019-5.63,36.366-15.945c0.966-1.066-0.613-2.655-1.584-1.584
						c-8.97,9.899-21.422,15.386-34.782,15.289c0.188,0.696,0.377,1.391,0.565,2.087c10.902-6.127,20.725-13.754,29.36-22.8
						c-0.528-0.528-1.056-1.056-1.584-1.584c-9.379,10.892-23.127,16.566-37.457,15.464c0.099,0.733,0.198,1.467,0.298,2.2
						c14.994-5.022,28.154-13.853,38.428-25.879c0.925-1.083-0.583-2.645-1.584-1.584c-10.306,10.925-24.254,17.283-39.267,17.839
						c0.099,0.733,0.198,1.467,0.298,2.2c15.194-4.896,27.816-15.29,35.483-29.299c0.707-1.293-1.095-2.27-1.934-1.131
						c-8.557,11.619-21.805,18.724-36.204,19.488C506.406,237.665,506.397,239.905,507.84,239.828L507.84,239.828z"/>
				</g>
			</g>
			<use xlink:href="#XMLID_4_"  overflow="visible" fill="none" stroke="#808080" stroke-width="2" stroke-miterlimit="10"/>
		</g>
		<g>
			<g>
				<defs>
					<path id="XMLID_3_" d="M559.488,308.867c-7,3.161-14.591,3.573-21.699,1.693c-0.898,7.463,0.379,15.983,4.104,24.232
						c8.416,18.637,17.664,32.651,39.579,22.754c22.303-10.072,17.516-26.1,9.1-44.737c-3.725-8.248-9.273-14.84-15.465-19.101
						C571.816,300.284,566.487,305.706,559.488,308.867z"/>
				</defs>
				<use xlink:href="#XMLID_3_"  overflow="visible" fill="#DD1919"/>
				<clipPath id="XMLID_9_">
					<use xlink:href="#XMLID_3_"  overflow="visible"/>
				</clipPath>
				<g clip-path="url(#XMLID_9_)">
					<g>
						<path fill="#FABF38" d="M528.553,314.082c22.799,10.1,44.324-4.912,56.541-23.726c3.037-4.677-4.44-9.012-7.46-4.361
							c-9.323,14.358-26.62,28.645-44.72,20.627C527.875,304.39,523.474,311.832,528.553,314.082L528.553,314.082z"/>
					</g>
				</g>
				<g clip-path="url(#XMLID_9_)">
					<g>
						<path fill="#FABF38" d="M554.432,365.802c25.086,0.428,49.114-13.689,60.86-35.879c2.6-4.911-4.855-9.282-7.46-4.361
							c-10.378,19.606-31.203,31.978-53.4,31.6C548.87,357.068,548.869,365.708,554.432,365.802L554.432,365.802z"/>
					</g>
				</g>
			</g>
			
				<ellipse transform="matrix(0.9114 -0.4116 0.4116 0.9114 -85.7289 269.0977)" fill="#FFFFFF" cx="581.987" cy="333.614" rx="8.618" ry="7.129"/>
			
				<ellipse transform="matrix(0.9114 -0.4116 0.4116 0.9114 -90.0454 263.8578)" fill="#FFFFFF" cx="567.662" cy="341.017" rx="6.56" ry="5.426"/>
		</g>
		<g>
			<path fill="#EDEDED" stroke="#808080" stroke-width="2" stroke-miterlimit="10" d="M566.261,387.307
				c-4.007-6.969-4.881-13.787,0.121-18.833c7.961-8.032,13.213,2.724,17.837-0.667c3.28-2.405,1.366-6.638,4.856-10.644
				c3.785-4.345,11.598-5.755,15.863-2.63c4.743,3.475,3.377,10.557,4.289,22.793c1.148,15.406,8.817,35.673,15.715,46.961
				c9.872,16.154,38.267,33.622,37.613,42.81c-0.366,5.147-4.123,10.564-8.646,12.366c-6.015,2.397-10.017-2.941-15.312-0.194
				c-5.091,2.641-3.658,8.751-8.822,11.302c-4.249,2.099-10.576,0.61-13.771-3.183c-4.392-5.213,0.082-11.279-0.412-23.983
				c-0.478-12.31-22.925-56.29-34.63-66.087C576.431,393.524,569.231,392.472,566.261,387.307z"/>
			<g>
				<defs>
					<path id="XMLID_2_" d="M592.971,416.736c3.025-4.443,7.731-1.232,16.111-6.965c4.632-3.169,6.255-6.245,9.699-5.922
						c2.921,0.274,4.932,2.786,6.167,4.328c2.793,3.489,3.238,5.007,6.307,12.466c1.956,4.756,1.367,5.288,1.18,6.85
						c-0.27,2.257-2.019,3.976-13.26,9.924c-10.498,5.555-12.269,5.8-14.193,5.403c-4.877-1.007-7.652-5.505-9.292-8.163
						C595.174,433.821,588.685,423.031,592.971,416.736z"/>
				</defs>
				<use xlink:href="#XMLID_2_"  overflow="visible" fill="#BFBBBB"/>
				<clipPath id="XMLID_10_">
					<use xlink:href="#XMLID_2_"  overflow="visible"/>
				</clipPath>
				<path clip-path="url(#XMLID_10_)" fill="#FFFFFF" d="M625.056,425.32c-0.548-0.389-1.121-0.605-1.693-0.682
					c-0.389-0.672-0.997-1.231-1.71-1.609c-0.091-0.854-0.457-1.644-1.004-2.268c0.804-1.756,0.007-3.695-1.38-4.79
					c0.366-1.52-0.128-3.181-1.471-4.157c-0.768-2.395-3.955-4.039-6.353-2.052c-3.421,2.835-7.339,4.671-11.717,5.447
					c-3.769,0.667-4.012,5.251-1.769,7.105c0.083,0.352,0.203,0.694,0.361,1.021c-0.613,2.095,0.34,4.57,3.068,4.919
					c0.302,1.112,1.059,2.098,2.095,2.595c-0.018,0.65,0.112,1.287,0.416,1.838c-0.151,0.428-0.225,0.898-0.203,1.407
					c0.023,0.542,0.171,1.104,0.419,1.627c0.069,1.358,0.711,2.685,1.862,3.502c2.987,2.119,7.652,0.179,10.591-1.185
					c3.678-1.707,6.744-4.193,9.422-7.205C627.407,429.236,626.661,426.459,625.056,425.32z"/>
				<g clip-path="url(#XMLID_10_)">
					<g>
						<path fill="#333333" d="M590.571,421.711c15.008-2.524,28.487-9.917,38.691-21.205c0.413-0.457-0.263-1.138-0.679-0.679
							c-10.099,11.173-23.418,18.461-38.268,20.959C589.708,420.888,589.966,421.813,590.571,421.711L590.571,421.711z"/>
					</g>
				</g>
				<g clip-path="url(#XMLID_10_)">
					<g>
						<path fill="#333333" d="M590.525,425.85c15.392-2.695,29.238-10.247,39.847-21.717c0.419-0.453-0.258-1.134-0.679-0.679
							c-10.502,11.355-24.189,18.803-39.423,21.47C589.662,425.03,589.919,425.956,590.525,425.85L590.525,425.85z"/>
					</g>
				</g>
				<g clip-path="url(#XMLID_10_)">
					<g>
						<path fill="#333333" d="M599.895,442.775c15.602-3.911,29.304-12.712,39.334-25.29c0.381-0.478-0.294-1.162-0.679-0.679
							c-9.934,12.457-23.452,21.168-38.91,25.043C599.041,441.999,599.295,442.925,599.895,442.775L599.895,442.775z"/>
					</g>
				</g>
				<g clip-path="url(#XMLID_10_)">
					<g>
						<path fill="#333333" d="M599.224,431.493c3.866,2.482,8.252,3.313,12.771,2.613c1.278-0.198,1.325-2.052,0.344-2.632
							c-0.155-0.092-0.311-0.184-0.466-0.276c-1.599-0.946-3.049,1.543-1.454,2.487c0.155,0.092,0.311,0.184,0.466,0.276
							c0.115-0.877,0.229-1.755,0.344-2.632c-3.751,0.58-7.376-0.285-10.551-2.323C599.113,428.002,597.667,430.494,599.224,431.493
							L599.224,431.493z"/>
					</g>
				</g>
				<g clip-path="url(#XMLID_10_)">
					<g>
						<path fill="#333333" d="M606.885,426.396c-0.477,3.821-2.636,7.171-5.842,9.273c-1.544,1.012-0.102,3.507,1.454,2.487
							c4.137-2.712,6.657-6.869,7.268-11.76C609.994,424.562,607.112,424.579,606.885,426.396L606.885,426.396z"/>
					</g>
				</g>
				<g clip-path="url(#XMLID_10_)">
					<g>
						<path fill="#333333" d="M614.447,423.224c4.365,2.813,9.773,2.935,14.299,0.421c1.621-0.9,0.17-3.388-1.454-2.487
							c-3.666,2.036-7.877,1.844-11.392-0.421C614.338,419.731,612.892,422.223,614.447,423.224L614.447,423.224z"/>
					</g>
				</g>
				<g clip-path="url(#XMLID_10_)">
					<g>
						<path fill="#333333" d="M621.023,417.403c-1.672,3.402-3.344,6.805-5.015,10.207c-0.814,1.657,1.669,3.119,2.487,1.454
							c1.672-3.402,3.344-6.805,5.015-10.207C624.324,417.199,621.841,415.737,621.023,417.403L621.023,417.403z"/>
					</g>
				</g>
			</g>
		</g>
		<g>
			<defs>
				<path id="XMLID_1_" d="M515.971,234.761c-3.065,11.348,3.649,23.032,14.996,26.097s23.032-3.649,26.097-14.996
					s-3.649-23.032-14.996-26.097C530.72,216.699,519.036,223.413,515.971,234.761z M542.95,236.615
					c2.041,3.552,0.816,8.087-2.736,10.129c-3.552,2.041-8.087,0.816-10.129-2.736c-2.041-3.552-0.816-8.087,2.736-10.129
					C536.374,231.838,540.909,233.063,542.95,236.615z"/>
			</defs>
			<use xlink:href="#XMLID_1_"  overflow="visible" fill="#CCCCCC"/>
			<clipPath id="XMLID_12_">
				<use xlink:href="#XMLID_1_"  overflow="visible"/>
			</clipPath>
			<g clip-path="url(#XMLID_12_)">
				<path fill="#FFFFFF" d="M534.487,222.42c-8.156-1.959-16.554,4.488-16.637,12.915c-0.026,2.623,2.364,5.121,5.042,4.99
					c2.747-0.135,4.962-2.23,4.99-5.041c-0.001-0.071,0.004-0.142,0.005-0.213c0.017-0.117,0.031-0.234,0.057-0.334
					c0.04-0.15,0.15-0.358,0.196-0.538c0.108-0.194,0.227-0.378,0.345-0.564c0.269-0.228,0.848-0.681,1.038-0.96
					c0.163-0.098,0.325-0.197,0.492-0.287c0.223-0.033,0.564-0.217,0.731-0.26c0.1-0.026,0.34-0.055,0.474-0.074
					c0.068,0.002,0.166,0.011,0.277,0.021c-0.18-0.048-0.19-0.104,0.346,0.022c0.09,0.001,0.166-0.003,0.207-0.02
					c-0.043,0.018-0.092,0.028-0.143,0.034c2.541,0.591,5.516-0.855,6.114-3.541C538.598,225.976,537.22,223.076,534.487,222.42z
					 M529.393,232.752c0.039-0.023,0.078-0.047,0.116-0.07C529.29,232.929,528.714,233.147,529.393,232.752z"/>
				<path fill="#FFFFFF" d="M531.843,232.095c-0.105-0.002-0.229-0.012-0.346-0.022c0.105,0.028,0.266,0.052,0.409,0.036
					c-0.011-0.003-0.023-0.005-0.034-0.007C531.861,232.099,531.854,232.098,531.843,232.095z"/>
			</g>
			<g clip-path="url(#XMLID_12_)">
				<path fill="#FFFFFF" d="M560.071,230.684c-2.943,0.145-4.693,2.226-4.987,5.019c-0.116,0.181-0.103,0.708-0.144,0.929
					c-0.128,0.687-0.286,1.368-0.469,2.042c-0.169,0.622-0.362,1.238-0.576,1.846c-0.104,0.294-0.22,0.584-0.326,0.877
					c-0.548,1.22-1.183,2.401-1.897,3.532c-0.345,0.546-0.709,1.081-1.091,1.604c-0.007,0.01-0.015,0.02-0.022,0.03
					c-0.131,0.131-0.554,0.687-0.582,0.72c-0.842,0.982-1.749,1.908-2.714,2.769c-0.481,0.429-1.019,0.802-1.489,1.24
					c0.048-0.045,0.089-0.083,0.13-0.12c-0.053,0.044-0.104,0.084-0.145,0.114c-0.264,0.186-0.53,0.368-0.8,0.544
					c-1.079,0.707-2.207,1.338-3.375,1.883c-0.137,0.064-0.274,0.125-0.412,0.186c-0.213,0.082-0.425,0.164-0.64,0.241
					c-0.66,0.236-1.329,0.44-2.005,0.625c-2.531,0.69-4.35,3.572-3.526,6.154c0.825,2.585,3.446,4.265,6.154,3.526
					c6.193-1.689,11.946-5.339,16.072-10.264c4.479-5.345,7.179-11.561,7.887-18.506
					C565.379,233.057,562.576,230.561,560.071,230.684z"/>
				<path fill="#FFFFFF" d="M545.903,251.171C546.196,250.928,546.555,250.567,545.903,251.171L545.903,251.171z"/>
			</g>
			<use xlink:href="#XMLID_1_"  overflow="visible" fill="none" stroke="#666666" stroke-width="1.28" stroke-miterlimit="10"/>
		</g>
		<g>
			<g>
				<path fill="#B2570B" d="M534.986,242.548c6.892-2.937,13.607-7.342,18.391-13.194c2.451-2.998,2.995-9.093-2.489-8.283
					c-0.88,0.13-1.013,1.322-0.494,1.872c0.467,0.495,0.934,0.989,1.401,1.484c0.452-0.586,0.905-1.173,1.357-1.759
					c-0.492-0.307-0.985-0.614-1.477-0.921c-1.055-0.658-2.359,0.945-1.357,1.759c0.629,0.511,1.258,1.022,1.886,1.533
					c1.109,0.902,2.703-0.674,1.584-1.584c-0.629-0.511-1.258-1.022-1.886-1.533c-0.452,0.586-0.905,1.173-1.357,1.759
					c0.492,0.307,0.985,0.614,1.477,0.921c1.102,0.687,2.215-0.85,1.357-1.759c-0.467-0.495-0.934-0.989-1.401-1.484
					c-0.165,0.624-0.329,1.248-0.494,1.872c0.409,1.089,0.818,2.179,1.228,3.268c-0.439,0.581-0.878,1.163-1.317,1.744
					c-0.69,0.816-1.469,1.579-2.234,2.325c-1.624,1.585-3.354,3.064-5.191,4.398c-3.144,2.283-6.544,4.125-10.115,5.646
					C532.533,241.177,533.673,243.107,534.986,242.548L534.986,242.548z"/>
			</g>
		</g>
	</g>
	<g>
		<g>
			<g>
				<path fill="#701919" d="M475.944,645.904c-24.223,16.409-48.447,32.818-72.67,49.228c-4.984,3.376-0.283,11.53,4.748,8.122
					c24.223-16.409,48.447-32.818,72.67-49.228C485.676,650.65,480.974,642.496,475.944,645.904L475.944,645.904z"/>
			</g>
		</g>
		<g>
			<g>
				<path fill="#701919" d="M415.222,639.392c15.133,25.04,30.266,50.081,45.399,75.121c3.127,5.175,11.265,0.452,8.122-4.748
					c-15.133-25.04-30.266-50.081-45.399-75.121C420.217,629.47,412.079,634.192,415.222,639.392L415.222,639.392z"/>
			</g>
		</g>
	</g>
</g>
</svg>
