<?xml version="1.0" encoding="utf-8"?>
<!-- Generator: Adobe Illustrator 20.1.0, SVG Export Plug-In . SVG Version: 6.00 Build 0)  -->
<svg version="1.1" id="Layer_1" xmlns="http://www.w3.org/2000/svg" xmlns:xlink="http://www.w3.org/1999/xlink" x="0px" y="0px"
	 viewBox="0 0 907.446 1150.552" enable-background="new 0 0 907.446 1150.552" xml:space="preserve">
<g>
	<path fill-rule="evenodd" clip-rule="evenodd" fill="#FABF37" d="M494.939,484.621c59.22,41.876,104.05,102.793,125.673,173.839
		c32.998-72.227,57.628-148.527,57.628-215.405c0-22.719-3.332-44.653-9.518-65.348C600.75,396.085,540.73,433.813,494.939,484.621z
		"/>
	<path fill-rule="evenodd" clip-rule="evenodd" fill="#DA7F0A" d="M494.939,484.621c45.625-50.096,106.431-88.701,173.77-106.91
		c-4.105-13.828-9.462-27.234-15.948-39.511c-0.009-0.001-0.018-0.001-0.028-0.002c0.008,0.016,0.017,0.031,0.025,0.046
		c-2.025,1.005-4.036,2.032-6.039,3.074C583.251,373.092,530.26,423.345,494.939,484.621z"/>
	<circle fill="#A7A5A6" cx="439.514" cy="428.361" r="5.584"/>
	<path fill-rule="evenodd" clip-rule="evenodd" fill="#3AB6D7" d="M360.397,235.617c28.116-12.593,58.891-19.707,91.666-19.707
		c33.486,0,65.269,7.316,93.86,20.43c-23.946-19.198-52.21-33.23-83.119-40.384c-20.776-4.512-42.346-6.89-64.471-6.89
		c-0.719,0-1.439-0.011-2.161-0.029c-88.835-0.623-169.663-39.49-224.686-101.051c34.076,70.42,104.539,123.124,180.273,145.331
		C354.231,234.043,357.371,234.881,360.397,235.617z"/>
	<path fill-rule="evenodd" clip-rule="evenodd" fill="#78CB19" d="M121.027,231.724c45.822-4.787,91.641-2.132,134.971,10.543
		c-9.371-9.178-18.127-19.053-26.25-29.376C191.677,211.697,155.051,218.367,121.027,231.724z"/>
	<path fill-rule="evenodd" clip-rule="evenodd" fill="#EE980D" d="M274.318,303.678c-65.61-7-112.278,30.038-113.036,30.809
		c13.786-9.226,29.129-13.651,46.952-13.651c16.671,0,32.986,5.542,45.986,13.7C260.22,323.842,266.883,313.678,274.318,303.678z"/>
	<path fill-rule="evenodd" clip-rule="evenodd" fill="#D13926" d="M562.179,244.633c-32.621-18.325-69.083-28.896-109.117-28.896
		c-124.915,0-226.177,101.69-226.177,227.131c0,202.687,226.177,491.947,226.177,491.947s92.046-117.726,158.699-255.594
		c-13.045-65.592-45.343-125.197-90.546-170.885c-0.025,0.025-0.05,0.046-0.075,0.071c-17.836,17.688-42.387,28.618-69.493,28.618
		c-54.501,0-98.684-44.174-98.684-98.666c0-51.345,39.23-93.516,89.354-98.218C475.495,301.253,516.296,268.646,562.179,244.633z"/>
	<path fill="#231F20" d="M451.354,408.633c-16.344,0-29.594,13.25-29.594,29.595c0,16.345,13.25,29.594,29.594,29.594
		c16.345,0,29.594-13.25,29.594-29.594C480.949,421.883,467.699,408.633,451.354,408.633z M439.514,433.945
		c-3.084,0-5.583-2.5-5.583-5.583c0-3.085,2.5-5.584,5.583-5.584c3.084,0,5.584,2.5,5.584,5.584
		C445.098,431.445,442.598,433.945,439.514,433.945z"/>
	<path fill="#F6C229" d="M260.782,291.906c-36.092,2.811-72.219,18.562-99.5,42.581c3.147-2.612,49.208-37.619,113.036-30.809l0,0
		C269.943,299.613,265.438,295.692,260.782,291.906z"/>
	<path fill-rule="evenodd" clip-rule="evenodd" fill="#F3B623" d="M250.516,283.972L250.516,283.972
		c-33.62,8.305-65.278,27.012-89.234,50.516c27.19-23.954,63.504-39.712,99.5-42.581C257.437,289.186,254,286.54,250.516,283.972z"
		/>
	<path fill-rule="evenodd" clip-rule="evenodd" fill="#4CAE09" d="M274.318,303.678c7.328-9.003,15.46-18.421,24.165-26.616
		c-0.004,0.222,0,0.12,0,0c-32.131-19.797-68.501-34.414-107.881-41.468c-22.242-3.985-68.522-4.283-69.575-3.87
		c4.36,0.57,9.075,1.419,13.449,2.203C188.615,243.626,236.786,269.674,274.318,303.678z"/>
	<path fill="#B6DD57" d="M255.998,242.268C255.912,242.242,256.085,242.292,255.998,242.268
		c-42.962-12.568-89.54-15.166-134.971-10.543c7.453-0.251,49.181,0.216,69.575,3.87c39.379,7.055,75.75,21.672,107.881,41.468
		c-0.001-0.001,0.001,0.001,0,0C283.318,266.757,269.059,255.128,255.998,242.268z"/>
	<path fill-rule="evenodd" clip-rule="evenodd" fill="#209BC7" d="M298.483,277.062C298.678,276.88,298.273,277.245,298.483,277.062
		c12.929-12.083,27.808-23.153,43.283-31.955c-0.131-0.051,0.14,0.05,0,0c-76.423-25.928-138.407-83.237-170.28-157.121
		C187.923,166.308,234.727,233.739,298.483,277.062z"/>
	<path fill="#4FCAE3" d="M360.397,235.617c-3.03-0.737-6.163-1.573-8.638-2.299c-75.735-22.208-146.197-74.912-180.273-145.331
		c31.872,73.882,93.86,131.192,170.28,157.121C347.804,241.674,354.029,238.492,360.397,235.617z"/>
	<g>
		<g>
			<path fill-rule="evenodd" clip-rule="evenodd" fill="#CA3322" d="M620.612,658.46c-18.083-59.412-52.402-111.731-97.785-151.765
				c-0.556,0.578-1.118,1.149-1.688,1.714v0c0,0,0.001-0.001,0.002-0.002c0.025-0.024,0.05-0.046,0.075-0.071
				c45.203,45.688,77.501,105.293,90.546,170.885C616.096,670.256,621.559,656.387,620.612,658.46z"/>
			<path fill-rule="evenodd" clip-rule="evenodd" fill="#CA3322" d="M620.612,658.46c-18.083-59.412-52.402-111.731-97.785-151.765
				c-0.556,0.578-1.118,1.149-1.688,1.714v0c0,0,0.001-0.001,0.002-0.002c0.025-0.024,0.05-0.046,0.075-0.071
				c45.203,45.688,77.501,105.293,90.546,170.885C616.096,670.256,621.559,656.387,620.612,658.46z"/>
		</g>
	</g>
	<path fill-rule="evenodd" clip-rule="evenodd" fill="#A92F1E" d="M494.939,484.621c-11.333,10.98-26.683,17.734-43.584,17.734
		c-34.88,0-63.156-28.711-63.156-64.127c0-9.622,2.101-18.742,5.841-26.933c13.369-25.442,29.625-49.291,48.284-71.161
		c-50.127,4.698-89.36,46.877-89.36,98.225c0,54.492,44.183,98.666,98.684,98.666c27.11,0,51.665-10.933,69.501-28.626
		c0.564-0.559,1.121-1.124,1.671-1.697c0.001-0.003,0.002-0.006,0.003-0.01C513.937,498.854,504.635,491.478,494.939,484.621z"/>
	<path fill-rule="evenodd" clip-rule="evenodd" fill="#ECECEC" d="M562.179,244.633c-71.685,37.516-130.999,95.983-168.139,166.662
		c-3.74,8.191-5.841,17.311-5.841,26.933c0,35.416,28.276,64.127,63.155,64.127c16.928,0,32.246-6.723,43.584-17.734
		c35.322-61.398,88.22-111.483,151.78-143.303c2.003-1.042,4.015-2.069,6.039-3.074C632.32,298.861,600.724,266.252,562.179,244.633
		z M451.354,467.823c-16.344,0-29.594-13.25-29.594-29.594c0-16.346,13.25-29.595,29.594-29.595
		c16.345,0,29.594,13.25,29.594,29.595C480.949,454.574,467.699,467.823,451.354,467.823z"/>
</g>
</svg>
